<svg viewBox="0 0 498 452" xmlns="http://www.w3.org/2000/svg"><g fill="none" fill-rule="evenodd"><rect height="141" rx="10" stroke="#979797" stroke-width="3" width="183" x="48.5" y="123.5" style="--darkreader-inline-stroke: #a69f93;" data-darkreader-inline-stroke=""></rect><path d="m207.75 67.246-.5.865-14 24.25" stroke="#999" stroke-width="6" style="--darkreader-inline-stroke: #a8a095;" data-darkreader-inline-stroke=""></path><path d="M186.673 101.593c.05 1.106.884 1.59 1.87 1.08l10.448-5.416c1.961-1.017 2.005-2.733.094-3.836l-9.67-5.584c-1.91-1.102-3.376-.212-3.276 2z" fill="#999" style="--darkreader-inline-fill: #a8a095;" data-darkreader-inline-fill=""></path><path d="m117.428 278.254-.499.864-14 24.25" stroke="#999" stroke-width="6" style="--darkreader-inline-stroke: #a8a095;" data-darkreader-inline-stroke=""></path><path d="M96.351 312.6c.05 1.106.884 1.591 1.87 1.08l10.448-5.416c1.961-1.017 2.006-2.733.095-3.836l-9.672-5.584c-1.908-1.102-3.375-.212-3.274 2z" fill="#999" style="--darkreader-inline-fill: #a8a095;" data-darkreader-inline-fill=""></path><path d="m255.25 67.246.5.865 14 24.25" stroke="#999" stroke-width="6" style="--darkreader-inline-stroke: #a8a095;" data-darkreader-inline-stroke=""></path><path d="M276.327 101.593c-.05 1.106-.884 1.59-1.87 1.08l-10.448-5.416c-1.961-1.017-2.005-2.733-.094-3.836l9.67-5.584c1.91-1.102 3.376-.212 3.276 2z" fill="#999" style="--darkreader-inline-fill: #a8a095;" data-darkreader-inline-fill=""></path><path d="m164.928 278 .5.865 14 24.25" stroke="#999" stroke-width="6" style="--darkreader-inline-stroke: #a8a095;" data-darkreader-inline-stroke=""></path><path d="M186.005 312.347c-.05 1.105-.884 1.59-1.87 1.08l-10.448-5.417c-1.96-1.016-2.005-2.732-.094-3.836l9.67-5.583c1.91-1.102 3.376-.212 3.276 2z" fill="#999" style="--darkreader-inline-fill: #a8a095;" data-darkreader-inline-fill=""></path><g transform="translate(169)"><rect height="52" rx="8" stroke="#999" stroke-width="3" width="123" x="1.5" y="1.5" style="--darkreader-inline-stroke: #a8a095;" data-darkreader-inline-stroke=""></rect><text fill="#3d3d3d" font-family="Optimistic Display" font-size="18" style="--darkreader-inline-fill: #c1bcb4;" data-darkreader-inline-fill=""><tspan x="33.486" y="33">App.js</tspan></text></g><g transform="translate(56 198)"><rect height="54" rx="8" stroke="#4077f7" width="167" x="1.5" y="0.5" style="--darkreader-inline-stroke: #489cf7;" data-darkreader-inline-stroke=""></rect><text fill="#3d3d3d" font-family="Optimistic Display" font-size="18" style="--darkreader-inline-fill: #c1bcb4;" data-darkreader-inline-fill=""><tspan x="27.477" y="33">Header.ios.js</tspan></text></g><g transform="translate(56 134)"><rect height="54" rx="8" stroke="#0ca40d" width="167" x="0.5" y="0.5" style="--darkreader-inline-stroke: #5df35e;" data-darkreader-inline-stroke=""></rect><text fill="#3d3d3d" font-family="Optimistic Display" font-size="18" style="--darkreader-inline-fill: #c1bcb4;" data-darkreader-inline-fill=""><tspan x="8.458" y="33">Header.android.js</tspan></text></g><g transform="translate(258 122)"><rect height="52" rx="8" stroke="#999" stroke-width="3" width="123" x="1.5" y="1.5" style="--darkreader-inline-stroke: #a8a095;" data-darkreader-inline-stroke=""></rect><text fill="#3d3d3d" font-family="Optimistic Display" font-size="18" style="--darkreader-inline-fill: #c1bcb4;" data-darkreader-inline-fill=""><tspan x="28.986" y="33">Body.js</tspan></text></g><g transform="translate(0 325)"><rect height="52" rx="8" stroke="#999" stroke-width="3" width="123" x="1.5" y="1.5" style="--darkreader-inline-stroke: #a8a095;" data-darkreader-inline-stroke=""></rect><text fill="#3d3d3d" font-family="Optimistic Display" font-size="18" style="--darkreader-inline-fill: #c1bcb4;" data-darkreader-inline-fill=""><tspan x="37.986" y="33">Image</tspan></text></g><g transform="translate(151 325)"><rect height="52" rx="8" stroke="#999" stroke-width="3" width="123" x="1.5" y="1.5" style="--darkreader-inline-stroke: #a8a095;" data-darkreader-inline-stroke=""></rect><text fill="#3d3d3d" font-family="Optimistic Display" font-size="18" style="--darkreader-inline-fill: #c1bcb4;" data-darkreader-inline-fill=""><tspan x="45.497" y="33">Text</tspan></text></g><g transform="translate(372 191)"><rect height="52" rx="8" stroke="#999" stroke-width="3" width="123" x="1.5" y="1.5" style="--darkreader-inline-stroke: #a8a095;" data-darkreader-inline-stroke=""></rect><text fill="#3d3d3d" font-family="Optimistic Display" font-size="18" style="--darkreader-inline-fill: #c1bcb4;" data-darkreader-inline-fill=""><tspan x="45.497" y="33">Text</tspan></text></g><g transform="translate(372 260)"><rect height="52" rx="8" stroke="#999" stroke-width="3" width="123" x="1.5" y="1.5" style="--darkreader-inline-stroke: #a8a095;" data-darkreader-inline-stroke=""></rect><text fill="#3d3d3d" font-family="Optimistic Display" font-size="18" style="--darkreader-inline-fill: #c1bcb4;" data-darkreader-inline-fill=""><tspan x="45.497" y="33">Text</tspan></text></g><g transform="translate(372 329)"><rect height="52" rx="8" stroke="#999" stroke-width="3" width="123" x="1.5" y="1.5" style="--darkreader-inline-stroke: #a8a095;" data-darkreader-inline-stroke=""></rect><text fill="#3d3d3d" font-family="Optimistic Display" font-size="18" style="--darkreader-inline-fill: #c1bcb4;" data-darkreader-inline-fill=""><tspan x="45.497" y="33">Text</tspan></text></g><g transform="translate(372 397)"><rect height="52" rx="8" stroke="#999" stroke-width="3" width="123" x="1.5" y="1.5" style="--darkreader-inline-stroke: #a8a095;" data-darkreader-inline-stroke=""></rect><text fill="#3d3d3d" font-family="Optimistic Display" font-size="18" style="--darkreader-inline-fill: #c1bcb4;" data-darkreader-inline-fill=""><tspan x="45.497" y="33">Text</tspan></text></g><path d="M318.5 186.5v241h6v-241z" fill="#999" style="--darkreader-inline-fill: #52585c;" data-darkreader-inline-fill=""></path><path d="M323 218.5h29" stroke="#999" stroke-width="6" style="--darkreader-inline-stroke: #a8a095;" data-darkreader-inline-stroke=""></path><path d="M363.284 217.42c.932.596.935 1.561 0 2.16l-9.915 6.34c-1.86 1.19-3.369.37-3.369-1.837v-11.167c0-2.204 1.504-3.029 3.37-1.836z" fill="#999" style="--darkreader-inline-fill: #a8a095;" data-darkreader-inline-fill=""></path><path d="M323 356.5h29" stroke="#999" stroke-width="6" style="--darkreader-inline-stroke: #a8a095;" data-darkreader-inline-stroke=""></path><path d="M363.284 355.42c.932.596.935 1.561 0 2.16l-9.915 6.34c-1.86 1.19-3.369.37-3.369-1.837v-11.167c0-2.204 1.504-3.029 3.37-1.836z" fill="#999" style="--darkreader-inline-fill: #a8a095;" data-darkreader-inline-fill=""></path><path d="M323 287.5h29" stroke="#999" stroke-width="6" style="--darkreader-inline-stroke: #a8a095;" data-darkreader-inline-stroke=""></path><path d="M363.284 286.42c.932.596.935 1.561 0 2.16l-9.915 6.34c-1.86 1.19-3.369.37-3.369-1.837v-11.167c0-2.204 1.504-3.029 3.37-1.836z" fill="#999" style="--darkreader-inline-fill: #a8a095;" data-darkreader-inline-fill=""></path><path d="M323 423.5h29" stroke="#999" stroke-width="6" style="--darkreader-inline-stroke: #a8a095;" data-darkreader-inline-stroke=""></path><path d="M363.284 422.42c.932.596.935 1.561 0 2.16l-9.915 6.34c-1.86 1.19-3.369.37-3.369-1.837v-11.167c0-2.204 1.504-3.029 3.37-1.836z" fill="#999" style="--darkreader-inline-fill: #a8a095;" data-darkreader-inline-fill=""></path></g></svg>